<svg width="18" height="26" viewBox="0 0 18 26" fill="none" xmlns="http://www.w3.org/2000/svg">
<path fill-rule="evenodd" clip-rule="evenodd" d="M4.59742 10.1041C4.59742 7.94246 5.10555 6.33775 5.88632 5.26989C6.67277 4.19427 7.77963 3.60411 9.04184 3.60411C10.3028 3.60411 11.4098 4.19908 12.1969 5.27816C12.9785 6.34977 13.4863 7.95525 13.4863 10.1041C13.4863 13.2443 12.3242 16.4569 11.0977 18.9526C10.4913 20.1864 9.88394 21.2153 9.42819 21.9356C9.2817 22.167 9.15121 22.3662 9.04184 22.5295C8.93241 22.3662 8.80192 22.167 8.6555 21.9356C8.19975 21.2153 7.5924 20.1864 6.98603 18.9526C5.75938 16.4569 4.59742 13.2443 4.59742 10.1041ZM8.67939 24.1962C8.67947 24.1963 8.67961 24.1965 9.04184 23.624L8.67961 24.1965C8.88405 24.4731 9.19964 24.4731 9.40401 24.1965L9.04184 23.624C9.40401 24.1965 9.40415 24.1963 9.40429 24.1962L9.40465 24.1956L9.40572 24.1942L9.4092 24.1894L9.42143 24.1727C9.43196 24.1582 9.44703 24.1374 9.46637 24.1104C9.50506 24.0563 9.56081 23.9772 9.63128 23.875C9.77222 23.6707 9.97197 23.373 10.211 22.9952C10.6886 22.2405 11.3257 21.1614 11.9638 19.8631C13.226 17.2949 14.5529 13.7476 14.5529 10.1041C14.5529 7.57292 13.9463 5.53842 12.9264 4.14005C11.9119 2.74916 10.53 2.04413 9.04184 2.04413C7.55492 2.04413 6.17289 2.74209 5.15775 4.13051C4.13693 5.52668 3.53076 7.56194 3.53076 10.1041C3.53076 13.7476 4.85767 17.2949 6.1199 19.8631C6.75797 21.1614 7.39507 22.2405 7.87265 22.9952C8.11165 23.373 8.31147 23.6707 8.45234 23.875C8.52281 23.9772 8.57863 24.0563 8.61731 24.1104C8.63666 24.1374 8.65173 24.1582 8.66219 24.1727L8.67442 24.1894L8.6779 24.1942L8.67897 24.1956L8.67939 24.1962ZM7.44186 10.1041C7.44186 8.81172 8.15815 7.76408 9.04184 7.76408C9.92546 7.76408 10.6418 8.81172 10.6418 10.1041C10.6418 11.3964 9.92546 12.444 9.04184 12.444C8.15815 12.444 7.44186 11.3964 7.44186 10.1041ZM9.04184 6.20409C7.56907 6.20409 6.37519 7.95016 6.37519 10.1041C6.37519 12.258 7.56907 14.004 9.04184 14.004C10.5145 14.004 11.7085 12.258 11.7085 10.1041C11.7085 7.95016 10.5145 6.20409 9.04184 6.20409Z" fill="black"/>
</svg>



