<svg width="18" height="26" viewBox="0 0 18 26" fill="none" xmlns="http://www.w3.org/2000/svg">
<path fill-rule="evenodd" clip-rule="evenodd" d="M7.17383 3.84637C6.72283 2.978 5.90123 2.6182 5.19233 3.14917C4.84374 3.41026 4.42104 3.75834 4.04068 4.1616C2.48671 5.80914 2.37227 8.91754 3.40813 11.0795C4.10096 12.5255 5.10786 14.3644 6.53111 16.4459C7.95421 18.5272 9.21147 19.9997 10.2001 21.013C11.6796 22.5291 13.8031 22.3628 14.9306 20.0881C15.2126 19.519 15.4505 18.9032 15.6278 18.3965C15.99 17.3613 15.7411 16.1668 15.1512 15.5115L13.8767 14.0959C13.0695 13.1993 11.9337 13.3123 11.217 14.3604C11.1466 14.4634 11.0324 14.4634 10.962 14.3604L7.95704 9.96573C7.8866 9.86279 7.8866 9.69574 7.95704 9.5928C8.6737 8.5446 8.75098 6.88336 8.13793 5.7029L7.17383 3.84637ZM5.69879 4.59551C5.88384 4.4569 6.13251 4.52784 6.28901 4.82922L7.25311 6.68575C7.53016 7.21925 7.49527 7.97002 7.17138 8.44369C6.667 9.18135 6.667 10.3772 7.17138 11.1148L10.1763 15.5095C10.6806 16.2471 11.4983 16.2471 12.0027 15.5095C12.3266 15.0358 12.8399 14.9847 13.2047 15.3899L14.4791 16.8055C14.6843 17.0334 14.7313 17.3916 14.6387 17.6563C14.4762 18.1207 14.2676 18.657 14.031 19.1344C13.3249 20.5589 11.9168 20.788 10.8378 19.6822C9.90113 18.7223 8.69354 17.3103 7.31677 15.2968C5.93984 13.2831 4.97441 11.5169 4.31806 10.147C3.56294 8.57093 3.72 6.50865 4.69282 5.47725C5.00915 5.14187 5.37665 4.8368 5.69879 4.59551Z" fill="#041E42"/>
<path d="M11.2029 3.26118C10.9002 3.18741 10.614 3.48642 10.5636 3.92904C10.5131 4.37167 10.7176 4.79029 11.0202 4.86405L11.2222 4.91327C12.8612 5.31279 14.1456 7.19122 14.4188 9.5883L14.4524 9.88364C14.5029 10.3263 14.7891 10.6253 15.0918 10.5515C15.3944 10.4777 15.5989 10.0591 15.5484 9.61649L15.5148 9.32115C15.1636 6.23919 13.5122 3.82406 11.4049 3.3104L11.2029 3.26118Z" fill="#041E42"/>
<path d="M10.6346 6.50827C10.3309 6.44481 10.0495 6.75347 10.0061 7.19769C9.96269 7.6419 10.1737 8.05346 10.4775 8.11692L10.772 8.17847C11.5053 8.33162 12.0815 9.17425 12.1862 10.2467L12.2283 10.6774C12.2717 11.1217 12.5531 11.4304 12.8568 11.3668C13.1606 11.3034 13.3717 10.8919 13.3283 10.4477L13.2862 10.0169C13.1116 8.22949 12.1513 6.82515 10.9292 6.56981L10.6346 6.50827Z" fill="#041E42"/>
</svg>


