<svg width="33" height="58" viewBox="0 0 33 58" fill="none" xmlns="http://www.w3.org/2000/svg">
<g clip-path="url(#clip0_67_8189)">
<path d="M16.3647 0C8.43411 0 1.98209 11.434 1.98209 25.4882C1.98209 27.0457 1.98209 39.0942 1.98209 39.3085C1.98209 42.1193 3.2725 44.4061 4.85861 44.4061H5.98236C6.37817 46.3838 7.44395 47.8046 8.69396 47.8046C10.2801 47.8046 11.5705 45.5178 11.5705 42.7069V28.8866C11.5705 26.0758 10.2801 23.789 8.69396 23.789C7.44395 23.789 6.37817 25.2098 5.98236 27.1874H4.85861C4.52244 27.1874 4.19988 27.2911 3.89977 27.4797V25.4882C3.89977 13.3079 9.49152 3.39843 16.3647 3.39843C23.2378 3.39843 28.8295 13.3079 28.8295 25.4882V27.4797C28.5294 27.2911 28.2069 27.1874 27.8707 27.1874H26.7469C26.3511 25.2098 25.2854 23.789 24.0354 23.789C22.4492 23.789 21.1588 26.0758 21.1588 28.8866V42.7069C21.1588 45.5178 22.4492 47.8046 24.0354 47.8046C24.3256 47.8046 24.6059 47.7273 24.8702 47.5849C24.5116 49.6763 23.4135 51.203 22.1177 51.203H19.0762C18.6804 49.2253 17.6147 47.8046 16.3647 47.8046C14.7785 47.8046 13.4881 50.0914 13.4881 52.9022C13.4881 55.713 14.7785 57.9998 16.3647 57.9998C17.6147 57.9998 18.6804 56.5791 19.0762 54.6014H22.1177C24.7612 54.6014 26.9119 50.7901 26.9119 46.1053V44.4061H27.8707C29.4568 44.4061 30.7472 42.1193 30.7472 39.3085C30.7472 39.0973 30.7472 27.0445 30.7472 25.4882C30.7472 11.434 24.2952 0 16.3647 0ZM7.73512 28.8866C7.73512 27.9497 8.16525 27.1874 8.69396 27.1874C9.22266 27.1874 9.65279 27.9497 9.65279 28.8866V42.7069C9.65279 43.6439 9.22266 44.4061 8.69396 44.4061C8.16525 44.4061 7.73512 43.6439 7.73512 42.7069V28.8866ZM4.85861 30.5859H5.81744V41.0077H4.85861C4.3299 41.0077 3.89977 40.2454 3.89977 39.3085V32.2851C3.89977 31.3481 4.3299 30.5859 4.85861 30.5859ZM16.3647 54.6014C15.836 54.6014 15.4058 53.8391 15.4058 52.9022C15.4058 51.9653 15.836 51.203 16.3647 51.203C16.8934 51.203 17.3235 51.9653 17.3235 52.9022C17.3235 53.8391 16.8934 54.6014 16.3647 54.6014ZM24.9942 42.7069C24.9942 43.6439 24.5641 44.4061 24.0354 44.4061C23.5067 44.4061 23.0765 43.6439 23.0765 42.7069V28.8866C23.0765 27.9497 23.5067 27.1874 24.0354 27.1874C24.5641 27.1874 24.9942 27.9497 24.9942 28.8866V42.7069ZM28.8295 39.3085C28.8295 40.2454 28.3994 41.0077 27.8707 41.0077H26.9119V30.5859H27.8707C28.3994 30.5859 28.8295 31.3481 28.8295 32.2851V39.3085Z" fill="#60C260"/>
</g>
<defs>
<clipPath id="clip0_67_8189">
<rect width="32.25" height="57.1522" fill="white" transform="scale(1.01483)"/>
</clipPath>
</defs>
</svg>


