<svg width="18" height="14" viewBox="0 0 18 14" fill="none" xmlns="http://www.w3.org/2000/svg">
<g clip-path="url(#clip0_0_4)">
<path d="M4.30029 7.3843L12.5394 13.8417C12.8093 14.0531 13.2464 14.0528 13.5159 13.8406C13.7852 13.6284 13.7845 13.2848 13.5145 13.0732L5.7658 7.0001L13.5148 0.927081C13.7847 0.715445 13.7854 0.371988 13.5162 0.159805C13.3811 0.0534398 13.2041 0.000256699 13.0271 0.000256687C12.8506 0.000256675 12.6743 0.0530841 12.5394 0.158711L4.30029 6.61593C4.17027 6.71759 4.09732 6.85595 4.09732 7.0001C4.09732 7.14425 4.17048 7.28245 4.30029 7.3843Z" fill="#112137"/>
</g>
<defs>
<clipPath id="clip0_0_4">
<rect width="17.0055" height="13.365" fill="white" transform="translate(17.8135 14) scale(1.04749) rotate(-180)"/>
</clipPath>
</defs>
</svg>



