<svg width="14" height="7" viewBox="0 0 14 7" fill="none" xmlns="http://www.w3.org/2000/svg">
<path d="M7.27818 6.80994L13.2863 1.50758C13.4253 1.38495 13.502 1.22124 13.502 1.04668C13.502 0.872118 13.4253 0.708408 13.2863 0.585771L12.8439 0.195289C12.5557 -0.0587999 12.0872 -0.0587999 11.7994 0.195289L6.75417 4.64781L1.70334 0.190349C1.56427 0.0677115 1.37888 -4.67663e-07 1.18119 -4.75289e-07C0.983288 -4.82923e-07 0.797894 0.0677114 0.658713 0.190348L0.216472 0.58083C0.0773992 0.703564 0.000783877 0.867177 0.000783869 1.04174C0.00078386 1.2163 0.0773992 1.38001 0.216472 1.50264L6.23004 6.80994C6.36955 6.93287 6.55582 7.00039 6.75384 7C6.95262 7.00039 7.13878 6.93287 7.27818 6.80994Z" fill="#041E42"/>
</svg>



