<svg width="10" height="5" viewBox="0 0 10 5" fill="none" xmlns="http://www.w3.org/2000/svg">
  <path d="M5.3901 4.77662L9.84024 1.05745C9.94325 0.971427 10 0.856598 10 0.734159C10 0.61172 9.94325 0.496891 9.84024 0.410871L9.51259 0.13698C9.2991 -0.0412433 8.9521 -0.0412433 8.73893 0.13698L5.00196 3.26006L1.26085 0.133514C1.15784 0.0474941 1.02052 -3.28027e-07 0.874098 -3.33376e-07C0.727511 -3.38731e-07 0.590191 0.0474941 0.487101 0.133514L0.159534 0.407405C0.0565247 0.493493 -0.000223168 0.608254 -0.000223175 0.730694C-0.000223181 0.853133 0.0565247 0.967962 0.159534 1.05398L4.61374 4.77662C4.71708 4.86284 4.85505 4.9102 5.00172 4.90993C5.14895 4.9102 5.28684 4.86284 5.3901 4.77662Z" fill="black"/>
</svg>
