<svg width="30" height="35" viewBox="0 0 30 35" fill="none" xmlns="http://www.w3.org/2000/svg">
<g clip-path="url(#clip0_0_78)">
<path d="M29.6493 8.71655V8.16427C29.6493 6.08484 28.2162 4.39315 26.4547 4.39315H3.19462C1.43308 4.39315 0 6.08484 0 8.16427V8.71655V8.72058V26.8355C0 28.9148 1.43308 30.6065 3.19462 30.6065H26.4549C28.2163 30.6065 29.6493 28.9148 29.6493 26.8355V8.72058C29.6493 8.71929 29.6493 8.71792 29.6493 8.71655ZM3.19462 6.44394H26.4547C27.2582 6.44394 27.912 7.21565 27.912 8.16427V8.16475L16.2783 17.3202C15.5039 17.9296 14.1455 17.9295 13.3712 17.3202L1.73728 8.16468V8.16421C1.73728 7.21565 2.39101 6.44394 3.19462 6.44394ZM26.4549 28.5557H3.19462C2.39101 28.5557 1.73728 27.784 1.73728 26.8355V10.6294L12.4076 19.0265C13.0853 19.56 13.9549 19.8266 14.8247 19.8266C15.6943 19.8266 16.5642 19.5599 17.242 19.0265L27.9121 10.6294V26.8355C27.912 27.784 27.2583 28.5557 26.4549 28.5557Z" fill="#041E42"/>
</g>
<defs>
<clipPath id="clip0_0_78">
<rect width="29.1149" height="34.369" fill="white" transform="scale(1.01836)"/>
</clipPath>
</defs>
</svg>



