<svg width="30" height="35" viewBox="0 0 30 35" fill="none" xmlns="http://www.w3.org/2000/svg">
<g clip-path="url(#clip0_0_83)">
<path d="M25.5358 26.5545L21.0454 23.0711C19.9765 22.242 18.589 22.3141 17.5923 23.25C16.7196 24.0701 15.4667 23.9862 14.6781 23.0551L10.1187 17.6732C9.33014 16.742 9.25911 15.263 9.95357 14.2328C10.7466 13.0563 10.8075 11.4183 10.1051 10.1566L7.15426 4.85584C6.63829 3.92899 5.83797 3.37437 4.90057 3.294C3.96317 3.21442 3.10381 3.62644 2.47994 4.45583C-0.976495 9.05031 -0.799376 16.0542 2.88304 20.4009L12.3672 31.5968C14.2832 33.8585 16.8083 34.9998 19.3386 34.9998C21.6711 34.9998 24.008 34.0297 25.8749 32.0726C26.5775 31.3359 26.927 30.3212 26.8589 29.2149C26.791 28.1086 26.3212 27.1639 25.5358 26.5545ZM24.7214 30.5394C21.5159 33.8999 16.6287 33.7274 13.5955 30.1468L4.11111 18.9512C1.07814 15.3706 0.932007 9.60145 3.77859 5.81714C4.01972 5.49671 4.32013 5.33462 4.67256 5.33462C4.70626 5.33462 4.74042 5.33622 4.77503 5.33916C5.17202 5.37307 5.48396 5.58936 5.7027 5.9819L8.65356 11.2827C8.94718 11.8103 8.9241 12.4672 8.59429 12.9561C7.34948 14.8029 7.47683 17.4542 8.8904 19.1231L13.4498 24.5051C14.8634 26.174 17.1094 26.3243 18.6738 24.8546C19.088 24.4655 19.6445 24.438 20.0915 24.7849L24.5819 28.268H24.5817C24.9144 28.5262 25.0976 28.8945 25.1264 29.3631C25.1551 29.8317 25.0189 30.2275 24.7214 30.5394Z" fill="#041E42"/>
<path d="M29.3946 0.300406C29.2318 0.108146 29.011 0 28.7807 0H23.5406C23.0609 0 22.672 0.45902 22.672 1.02539C22.672 1.59148 23.0609 2.05051 23.5406 2.05051H26.6876L16.9908 13.5268C16.652 13.9276 16.6529 14.5768 16.9924 14.9768C17.1618 15.1762 17.3838 15.2761 17.6057 15.2761C17.8283 15.2761 18.0511 15.1757 18.2207 14.9749L27.9121 3.505L27.9119 7.21055C27.9119 7.77691 28.3007 8.23593 28.7803 8.23593H28.7805C29.2601 8.23593 29.6489 7.77691 29.6489 7.21055L29.6491 1.02512C29.6491 0.753552 29.5577 0.492666 29.3946 0.300406Z" fill="#041E42"/>
</g>
<defs>
<clipPath id="clip0_0_83">
<rect width="29.1149" height="34.369" fill="white" transform="scale(1.01836)"/>
</clipPath>
</defs>
</svg>



