<svg width="31" height="32" viewBox="0 0 31 32" fill="none" xmlns="http://www.w3.org/2000/svg">
<path d="M30.351 7.50008V13.5001C30.2884 15.1587 28.0418 15.1574 27.9798 13.5001V7.50008C27.9798 4.74305 25.8524 2.50003 23.2374 2.50003H7.1135C4.49858 2.50003 2.37117 4.74305 2.37117 7.50008V24.5002C2.37117 27.2573 4.49858 29.5003 7.1135 29.5003H13.0414C14.6145 29.5663 14.6133 31.9349 13.0414 32.0003H7.1135C3.19112 32.0003 0 28.6358 0 24.5002V7.50008C0 3.36453 3.19112 0 7.1135 0H23.2374C27.1598 0 30.351 3.36453 30.351 7.50008ZM19.3843 6.87507C19.3843 6.18469 18.8535 5.62506 18.1987 5.62506H12.1522C10.5792 5.69106 10.5804 8.05964 12.1522 8.12508H18.1987C18.8535 8.12508 19.3843 7.56545 19.3843 6.87507ZM29.1654 24.8243C28.5494 24.5902 27.8701 24.9271 27.648 25.5764C25.4159 31.7709 16.824 30.2001 16.7167 23.5627C16.6628 19.3223 21.0464 16.3036 24.6983 18.1984C25.2931 18.4867 25.9971 18.2122 26.2708 17.585C26.5443 16.9577 26.2839 16.2155 25.6891 15.927C20.5072 13.2587 14.2647 17.5317 14.3456 23.5628C14.4983 32.9946 26.7078 35.2272 29.8787 26.4241C30.1007 25.7747 29.7813 25.0584 29.1654 24.8243ZM25.3809 25.1791L30.0077 20.255C30.4684 19.7644 30.4649 18.973 29.9998 18.4872C29.5346 18.0013 28.7839 18.005 28.3231 18.4954L23.6941 23.422C23.4553 23.69 23.0264 23.6906 22.7884 23.4259L21.1217 21.6268C20.6642 21.133 19.9136 21.1237 19.4451 21.606C18.9768 22.0885 18.9679 22.8799 19.4254 23.3737L21.0957 25.1766C21.6673 25.7884 22.4287 26.1253 23.2395 26.1253C24.0503 26.1253 24.8115 25.7883 25.3809 25.1791Z" fill="#041E42"/>
</svg>



