<svg width="22" height="20" viewBox="0 0 22 20" fill="none" xmlns="http://www.w3.org/2000/svg">
<path d="M14.6234 3.19824C17.2175 3.19824 19.3198 5.11947 19.3198 7.80921C19.3198 13.1886 12.9157 16.2627 10.781 17.4154C8.6463 16.2627 2.24219 13.1886 2.24219 7.80921C2.24219 5.11947 4.3769 3.19824 6.93853 3.19824C8.52675 3.19824 9.92712 3.96674 10.781 4.73523C11.6348 3.96674 13.0352 3.19824 14.6234 3.19824ZM11.5785 15.1898C12.3307 14.7626 13.0096 14.3376 13.6449 13.8826C16.1903 12.0613 17.612 10.0709 17.612 7.80921C17.612 5.99556 16.2996 4.73523 14.6234 4.73523C13.7046 4.73523 12.7107 5.17327 11.9883 5.82188L10.781 6.90853L9.57361 5.82188C8.85123 5.17327 7.85731 4.73523 6.93853 4.73523C5.282 4.73523 3.94996 6.00786 3.94996 7.80921C3.94996 10.0717 5.37251 12.0613 7.91623 13.8826C8.55237 14.3376 9.23121 14.7626 9.98348 15.1891C10.2387 15.3343 10.4915 15.4734 10.781 15.6286C11.0704 15.4734 11.3232 15.3343 11.5785 15.1898Z" fill="#041E42"/>
</svg>



