<svg width="33" height="58" viewBox="0 0 33 58" fill="none" xmlns="http://www.w3.org/2000/svg">
<g clip-path="url(#clip0_67_8180)">
<path d="M30.2675 15.7368L30.2665 15.6917C30.2522 15.1346 30.2427 14.5452 30.237 13.8894C30.2103 10.6914 28.7758 8.04613 26.971 7.86736C23.208 7.49522 20.2971 5.32076 17.8098 1.0245L17.7886 0.988661C16.9774 -0.329554 15.7536 -0.329554 14.9421 0.988661L14.9209 1.0245C12.4336 5.32076 9.52266 7.49522 5.75974 7.86781C3.95518 8.04613 2.52042 10.6914 2.49371 13.8898C2.48821 14.5412 2.47848 15.1306 2.46424 15.6917L2.46274 15.7966C2.38958 22.5965 2.29869 31.0594 3.89625 38.7408C4.77468 42.9649 6.10507 46.6368 7.8502 49.6551C9.83778 53.0925 12.4411 55.8214 15.5878 57.7657C15.6902 57.829 15.7965 57.8803 15.9049 57.9188C16.0577 57.9728 16.2115 57.9998 16.3653 57.9998C16.5192 57.9998 16.6732 57.9728 16.8258 57.9188C16.9342 57.8803 17.0413 57.8286 17.1442 57.7648C20.2871 55.8169 22.8877 53.0867 24.8735 49.6498C26.6179 46.6306 27.9483 42.9578 28.8275 38.7328C30.431 31.0284 30.3404 22.5496 30.2675 15.7368ZM27.0256 37.5553C25.3407 45.6513 21.9011 51.2114 16.5104 54.5523C16.4912 54.5638 16.4707 54.5739 16.4495 54.5815C16.3938 54.6009 16.3371 54.6009 16.2807 54.581C16.2597 54.5735 16.2393 54.5638 16.2203 54.5523C10.8238 51.2176 7.38202 45.6606 5.69831 37.5642C4.22585 30.4837 4.30925 22.7151 4.38291 15.8616L4.38341 15.8236C4.39839 15.2346 4.40838 14.6177 4.41387 13.9398C4.42586 12.5198 5.06408 11.345 5.86686 11.2658C7.99627 11.0552 9.867 10.3259 11.5859 9.03646C13.3026 7.74877 14.8272 5.93363 16.2465 3.48747C16.3187 3.3795 16.4123 3.37906 16.4842 3.48747C17.9037 5.93363 19.4284 7.74877 21.1448 9.03646C22.8637 10.3259 24.7344 11.0552 26.8641 11.2658C27.6669 11.345 28.3051 12.5198 28.3168 13.9403C28.3226 14.6217 28.3326 15.2386 28.3475 15.8236C28.4209 22.685 28.5023 30.4598 27.0256 37.5553Z" fill="#60C260"/>
<path d="M16.3642 14.5466C11.8667 14.5466 8.20785 21.031 8.20785 29.001C8.20785 36.9713 11.8667 43.4558 16.3642 43.4558C20.8615 43.4558 24.5206 36.9713 24.5206 29.001C24.5206 21.031 20.8615 14.5466 16.3642 14.5466ZM16.3642 40.0521C12.9256 40.0521 10.1283 35.0947 10.1283 29.001C10.1283 22.9072 12.9256 17.9499 16.3642 17.9499C19.8025 17.9499 22.5999 22.9072 22.5999 29.001C22.5999 35.0947 19.8025 40.0521 16.3642 40.0521Z" fill="#60C260"/>
<path d="M18.7092 24.5138L14.9208 31.2275L13.8925 29.4053C13.5175 28.7406 12.9094 28.7406 12.5344 29.4053C12.1596 30.0699 12.1596 31.1474 12.5344 31.8116L14.2418 34.8374C14.4293 35.1698 14.675 35.3357 14.9208 35.3357C15.1665 35.3357 15.4122 35.1698 15.5997 34.8374L20.0673 26.9202C20.4421 26.2555 20.4421 25.178 20.0673 24.5138C19.6922 23.8488 19.0842 23.8488 18.7092 24.5138Z" fill="#60C260"/>
</g>
<defs>
<clipPath id="clip0_67_8180">
<rect width="32.25" height="57.1522" fill="white" transform="scale(1.01483)"/>
</clipPath>
</defs>
</svg>



