<svg width="31" height="32" viewBox="0 0 31 32" fill="none" xmlns="http://www.w3.org/2000/svg">
<g clip-path="url(#clip0_426_9961)">
<g clip-path="url(#clip1_426_9961)">
<path d="M7.92862 15.1762C7.92845 15.1677 7.92862 15.1846 7.92862 15.1762V15.1762ZM22.5113 15.1762C22.4523 18.2397 20.7867 21.1326 17.6949 23.5624C16.2377 24.7076 14.2022 24.7076 12.745 23.5624C9.65323 21.1326 7.98761 18.2397 7.92862 15.1762C7.94006 11.1468 12.5998 9.15385 15.22 12.0576C17.8416 9.1526 22.5005 11.1491 22.5113 15.1762ZM20.1401 15.1284C20.0144 12.5157 16.4982 12.5463 16.4055 15.1762C16.4055 15.8666 15.8747 16.4262 15.22 16.4262C14.5652 16.4262 14.0344 15.8666 14.0344 15.1762C13.9416 12.5451 10.4244 12.5172 10.2998 15.1284C10.3611 17.9815 12.4331 20.1991 14.1621 21.5579C14.7848 22.0474 15.6549 22.0474 16.2778 21.5579C18.0068 20.1991 20.0788 17.9815 20.1401 15.1284ZM22.5113 15.1762C22.5113 15.1846 22.5115 15.1677 22.5113 15.1762V15.1762ZM30.3361 16.7387C30.3226 30.9411 13.9635 38.085 4.42997 28.0524C-1.4565 22.0968 -1.45745 11.3804 4.43021 5.42488C13.9646 -4.60763 30.3234 2.53711 30.3361 16.7387ZM27.965 16.7387C27.965 9.29473 22.221 3.23862 15.1607 3.23862C-1.82593 3.98018 -1.82101 29.5 15.1608 30.2388C22.221 30.2388 27.965 24.1827 27.965 16.7387Z" fill="#041E42"/>
</g>
</g>
<defs>
<clipPath id="clip0_426_9961">
<rect width="30.0573" height="31.6907" fill="white" transform="scale(1.00977)"/>
</clipPath>
<clipPath id="clip1_426_9961">
<rect width="30.0573" height="31.6907" fill="white" transform="translate(0 0.73859) scale(1.00977)"/>
</clipPath>
</defs>
</svg>



