<svg width="18" height="20" viewBox="0 0 18 20" fill="none" xmlns="http://www.w3.org/2000/svg">
<g clip-path="url(#clip0_0_120)">
<path fill-rule="evenodd" clip-rule="evenodd" d="M13.5 17.3457C13.5 16.4333 14.1715 15.6938 15 15.6938C15.8284 15.6938 16.5 16.4333 16.5 17.3457C16.5 18.2581 15.8284 18.9976 15 18.9976C14.1715 18.9976 13.5 18.2581 13.5 17.3457Z" fill="white"/>
<path fill-rule="evenodd" clip-rule="evenodd" d="M5.24933 17.3457C5.24933 16.4333 5.9209 15.6938 6.74933 15.6938C7.57778 15.6938 8.24934 16.4333 8.24934 17.3457C8.24934 18.2581 7.57778 18.9976 6.74933 18.9976C5.9209 18.9976 5.24933 18.2581 5.24933 17.3457Z" fill="white"/>
<path fill-rule="evenodd" clip-rule="evenodd" d="M0 0.825973C0 0.3698 0.335786 0 0.75 0H3.75C4.10747 0 4.41526 0.277845 4.48541 0.66387L5.11532 4.12986H17.25C17.4735 4.12986 17.6854 4.23966 17.8279 4.42933C17.9704 4.61899 18.0286 4.86876 17.9867 5.11057L16.7857 12.0466C16.6828 12.6171 16.401 13.1295 15.9896 13.4942C15.5804 13.857 15.0687 14.0506 14.5436 14.0415H7.26648C6.74128 14.0506 6.22965 13.857 5.82036 13.4942C5.40919 13.1296 5.12748 12.6175 5.0245 12.0474C5.02445 12.0471 5.02454 12.0476 5.0245 12.0474L3.77159 5.15341C3.76651 5.1306 3.76229 5.10743 3.75896 5.08393L3.13524 1.65195H0.75C0.335786 1.65195 0 1.28214 0 0.825973H0ZM5.41555 5.78181L6.49563 11.7248C6.52992 11.915 6.62384 12.0858 6.76096 12.2073C6.89807 12.3289 7.06964 12.3935 7.24563 12.3898L7.26 12.3896H14.55L14.5644 12.3898C14.7404 12.3935 14.912 12.3289 15.049 12.2073C15.1855 12.0863 15.2792 11.9166 15.3139 11.7275L16.3435 5.78181H5.41555Z" fill="white"/>
</g>
<defs>
<clipPath id="clip0_0_120">
<rect width="17.5" height="19.2727" fill="white" transform="scale(1.02857)"/>
</clipPath>
</defs>
</svg>



