<svg width="23" height="21" viewBox="0 0 23 21" fill="none" xmlns="http://www.w3.org/2000/svg">
<path d="M10.4791 1.69016C5.72871 1.69016 1.85907 5.22463 1.85907 9.56362C1.85907 13.9026 5.72871 17.4439 10.4791 17.4439C12.5082 17.4439 14.3743 16.7945 15.8491 15.7161L19.4397 18.994C19.6209 19.1526 19.8629 19.2402 20.1139 19.2378C20.3649 19.2355 20.6049 19.1435 20.7825 18.9815C20.9601 18.8195 21.0612 18.6004 21.0641 18.3712C21.0671 18.1419 20.9716 17.9207 20.7981 17.755L17.2075 14.4754C18.3891 13.1262 19.1011 11.4191 19.1011 9.56362C19.1011 5.22463 15.2295 1.69016 10.4791 1.69016ZM10.4791 3.44022C14.1941 3.44022 17.1832 6.17045 17.1832 9.56362C17.1832 12.9568 14.1941 15.6939 10.4791 15.6939C6.76419 15.6939 3.77505 12.9568 3.77505 9.56362C3.77505 6.17045 6.76419 3.44022 10.4791 3.44022Z" fill="#112137"/>
</svg>



