<svg width="13" height="14" viewBox="0 0 13 14" fill="none" xmlns="http://www.w3.org/2000/svg">
<g clip-path="url(#clip0_0_39)">
<path d="M2.97761 7.38418L8.68543 13.8417C8.87245 14.0531 9.17522 14.0528 9.36192 13.8406C9.54847 13.6284 9.54799 13.2847 9.36095 13.0731L3.99287 6.99998L9.36115 0.926851C9.54816 0.715211 9.54864 0.371748 9.36211 0.159561C9.26852 0.0531941 9.14591 1.06459e-05 9.0233 1.06337e-05C8.90101 1.06216e-05 8.77888 0.0528386 8.68546 0.158467L2.97761 6.6158C2.88754 6.71746 2.83699 6.85582 2.83699 6.99998C2.83699 7.14413 2.88768 7.28233 2.97761 7.38418Z" fill="#112137"/>
</g>
<defs>
<clipPath id="clip0_0_39">
<rect width="12.1201" height="13.75" fill="white" transform="translate(12.3395 14) scale(1.01818) rotate(-180)"/>
</clipPath>
</defs>
</svg>



