<svg width="9" height="5" viewBox="0 0 9 5" fill="none" xmlns="http://www.w3.org/2000/svg">
<path d="M4.58843 0.135757L8.37576 3.92315C8.46342 4.01075 8.51172 4.12769 8.51172 4.25237C8.51172 4.37706 8.46342 4.49399 8.37576 4.58159L8.09691 4.86051C7.91521 5.042 7.61989 5.042 7.43847 4.86051L4.2581 1.68014L1.0742 4.86404C0.986534 4.95163 0.869668 5 0.745051 5C0.620297 5 0.50343 4.95163 0.415694 4.86404L0.136917 4.58512C0.0492496 4.49745 0.000953647 4.38059 0.000953642 4.2559C0.000953636 4.13122 0.0492496 4.01428 0.136917 3.92668L3.92771 0.135757C4.01565 0.0479514 4.13307 -0.000275897 4.25789 1.13961e-06C4.3832 -0.000275908 4.50055 0.0479514 4.58843 0.135757Z" fill="#041E42"/>
</svg>



