<svg width="24" height="24" viewBox="0 0 24 24" fill="none" xmlns="http://www.w3.org/2000/svg">
  <path d="M1 21H16V23H1V21ZM22.04 2.96C21.67 2.58 21.1 2.58 20.72 2.96L14.85 8.83L11.17 5.15L17.04 0.28C17.42 -0.1 17.42 -0.67 17.04 -1.05C16.66 -1.42 16.09 -1.42 15.71 -1.05L9.83 6.83L5.15 2.15C4.77 1.77 4.2 1.77 3.82 2.15C3.44 2.53 3.44 3.1 3.82 3.48L8.5 9.16L0.59 17.07C0.21 17.45 0.21 18.02 0.59 18.4L1.57 19.38C1.95 19.76 2.52 19.76 2.9 19.38L10.82 11.46L16.5 17.14C16.88 17.52 17.45 17.52 17.83 17.14C18.21 16.76 18.21 16.19 17.83 15.81L13.15 11.13L19.04 5.28L22.71 8.96C23.09 9.34 23.66 9.34 24.04 8.96C24.42 8.58 24.42 8.01 24.04 7.63L20.36 3.95L22.04 2.96Z" fill="black"/>
</svg>
