<svg width="31" height="32" viewBox="0 0 31 32" fill="none" xmlns="http://www.w3.org/2000/svg">
<g clip-path="url(#clip0_426_9964)">
<path d="M21.6703 3.92817C19.2795 1.39669 16.0945 0.00251973 12.7018 0.00251973H12.6872C5.85538 -0.144909 -0.138233 6.1986 0.00242706 13.399C0.18126 18.4834 4.82043 24.9405 8.43313 29.9013C9.4941 31.2376 11.04 32.0003 12.7008 32.0003C14.4197 32.0003 16.0158 31.1836 17.0795 29.7597C19.7596 26.2483 25.5467 17.8026 25.372 13.3989C25.3721 9.81932 24.0574 6.45589 21.6703 3.92817ZM15.217 28.2129C13.9918 29.9168 11.4146 29.9198 10.189 28.2158C5.2903 21.6391 2.37331 16.1621 2.37331 13.399C2.37331 7.39059 7.0001 2.50244 12.6872 2.50244H12.7018C18.3809 2.50244 23.0011 7.39065 23.0011 13.399C23.0011 16.1922 20.1639 21.5916 15.217 28.2129ZM12.7538 18.6887C9.97565 18.6887 7.71543 16.3057 7.71543 13.3766C7.99219 6.32921 17.5165 6.33127 17.7922 13.3766C17.7922 16.3058 15.532 18.6887 12.7538 18.6887ZM12.7538 10.5642C11.283 10.5642 10.0864 11.8258 10.0864 13.3766C10.233 17.1075 15.2752 17.1064 15.4212 13.3766C15.4212 11.8258 14.2247 10.5642 12.7538 10.5642Z" fill="#041E42"/>
</g>
<defs>
<clipPath id="clip0_426_9964">
<rect width="30.0573" height="31.6907" fill="white" transform="scale(1.00977)"/>
</clipPath>
</defs>
</svg>



