<svg width="14" height="7" viewBox="0 0 14 7" fill="none" xmlns="http://www.w3.org/2000/svg">
<path d="M6.22378 0.19006L0.215688 5.49242C0.0766159 5.61505 1.65017e-08 5.77876 1.4143e-08 5.95332C1.17843e-08 6.12788 0.0766159 6.29159 0.215688 6.41423L0.658041 6.80471C0.946283 7.0588 1.41476 7.0588 1.70256 6.80471L6.7478 2.35219L11.7986 6.80965C11.9377 6.93229 12.1231 7 12.3208 7C12.5187 7 12.7041 6.93229 12.8433 6.80965L13.2855 6.41917C13.4246 6.29644 13.5012 6.13282 13.5012 5.95826C13.5012 5.7837 13.4246 5.61999 13.2855 5.49736L7.27192 0.19006C7.13241 0.0671321 6.94614 -0.000385688 6.74813 1.50153e-06C6.54934 -0.000385692 6.36318 0.0671321 6.22378 0.19006Z" fill="#041E42"/>
</svg>



