<svg width="30" height="36" viewBox="0 0 30 36" fill="none" xmlns="http://www.w3.org/2000/svg">
<path d="M12.8374 19.3754C12.5989 19.3754 12.3603 19.4856 12.1786 19.705L4.65936 28.7847V23.5457C4.65936 22.9236 4.24286 22.4207 3.7276 22.4207C3.21234 22.4207 2.79584 22.9236 2.79584 23.5457V31.4993C2.79584 32.1214 3.21234 32.6243 3.7276 32.6243H10.3151C10.8304 32.6243 11.2469 32.1214 11.2469 31.4993C11.2469 30.8772 10.8304 30.3743 10.3151 30.3743H5.97779L13.4961 21.2957C13.8605 20.8558 13.8605 20.1448 13.4961 19.705C13.3144 19.4845 13.0759 19.3754 12.8374 19.3754Z" fill="#041E42"/>
<path d="M26.1932 3.49982H19.6056C19.0904 3.49982 18.6739 4.00269 18.6739 4.6248C18.6739 5.24692 19.0904 5.74979 19.6056 5.74979H23.9439L16.3203 14.9544C15.9559 15.3943 15.9559 16.1053 16.3203 16.5451C16.6846 16.985 17.2734 16.985 17.6378 16.5451L25.2614 7.34052V12.5784C25.2614 13.2006 25.6779 13.7034 26.1932 13.7034C26.7084 13.7034 27.1249 13.2006 27.1249 12.5784V4.6248C27.1249 4.00381 26.7084 3.49982 26.1932 3.49982Z" fill="#041E42"/>
</svg>



