<svg width="58" height="10" viewBox="0 0 58 10" fill="none" xmlns="http://www.w3.org/2000/svg">
<g clip-path="url(#clip0_0_15)">
<path d="M8.12815 3.83573C8.0745 3.63325 7.92813 3.48989 7.75566 3.47074L5.40314 3.20866L4.47342 0.537725C4.40478 0.341494 4.24859 0.214844 4.07474 0.214844C3.9009 0.214844 3.74465 0.341494 3.67644 0.537725L2.74671 3.20866L0.393831 3.47074C0.221353 3.49027 0.0753007 3.63363 0.0213315 3.83573C-0.0323269 4.03822 0.0172278 4.26032 0.147674 4.4007L1.92598 6.3141L1.40165 9.14786C1.36329 9.35622 1.42919 9.57168 1.57009 9.69665C1.64582 9.76417 1.73479 9.79789 1.82408 9.79789C1.9008 9.79789 1.97759 9.77287 2.04617 9.72251L4.07474 8.23415L6.10294 9.72251C6.25173 9.83161 6.43882 9.82162 6.5794 9.69665C6.72029 9.57168 6.7862 9.35622 6.74784 9.14786L6.2235 6.3141L8.00181 4.4007C8.1322 4.26032 8.18181 4.03868 8.12815 3.83573Z" fill="#F5C34B"/>
</g>
<g clip-path="url(#clip1_0_15)">
<path d="M20.3528 3.83573C20.2991 3.63325 20.1527 3.48989 19.9803 3.47074L17.6278 3.20866L16.698 0.537725C16.6294 0.341494 16.4732 0.214844 16.2994 0.214844C16.1255 0.214844 15.9693 0.341494 15.901 0.537725L14.9713 3.20866L12.6184 3.47074C12.446 3.49027 12.2999 3.63363 12.2459 3.83573C12.1923 4.03822 12.2418 4.26032 12.3723 4.4007L14.1506 6.3141L13.6263 9.14786C13.5879 9.35622 13.6538 9.57168 13.7947 9.69665C13.8704 9.76417 13.9594 9.79789 14.0487 9.79789C14.1254 9.79789 14.2022 9.77287 14.2708 9.72251L16.2994 8.23415L18.3275 9.72251C18.4763 9.83161 18.6634 9.82162 18.804 9.69665C18.9449 9.57168 19.0108 9.35622 18.9724 9.14786L18.4481 6.3141L20.2264 4.4007C20.3568 4.26032 20.4064 4.03868 20.3528 3.83573Z" fill="#F5C34B"/>
</g>
<g clip-path="url(#clip2_0_15)">
<path d="M32.5774 3.83573C32.5237 3.63325 32.3774 3.48989 32.2049 3.47074L29.8524 3.20866L28.9226 0.537725C28.854 0.341494 28.6978 0.214844 28.524 0.214844C28.3501 0.214844 28.1939 0.341494 28.1257 0.537725L27.1959 3.20866L24.843 3.47074C24.6706 3.49027 24.5245 3.63363 24.4706 3.83573C24.4169 4.03822 24.4664 4.26032 24.5969 4.4007L26.3752 6.3141L25.8509 9.14786C25.8125 9.35622 25.8784 9.57168 26.0193 9.69665C26.095 9.76417 26.184 9.79789 26.2733 9.79789C26.35 9.79789 26.4268 9.77287 26.4954 9.72251L28.524 8.23415L30.5522 9.72251C30.701 9.83161 30.888 9.82162 31.0286 9.69665C31.1695 9.57168 31.2354 9.35622 31.1971 9.14786L30.6727 6.3141L32.451 4.4007C32.5814 4.26032 32.631 4.03868 32.5774 3.83573Z" fill="#F5C34B"/>
</g>
<g clip-path="url(#clip3_0_15)">
<path d="M44.8 3.83573C44.7464 3.63325 44.6 3.48989 44.4275 3.47074L42.075 3.20866L41.1453 0.537725C41.0767 0.341494 40.9205 0.214844 40.7466 0.214844C40.5728 0.214844 40.4165 0.341494 40.3483 0.537725L39.4186 3.20866L37.0657 3.47074C36.8932 3.49027 36.7472 3.63363 36.6932 3.83573C36.6395 4.03822 36.6891 4.26032 36.8195 4.4007L38.5979 6.3141L38.0735 9.14786C38.0352 9.35622 38.1011 9.57168 38.242 9.69665C38.3177 9.76417 38.4067 9.79789 38.496 9.79789C38.5727 9.79789 38.6495 9.77287 38.718 9.72251L40.7466 8.23415L42.7748 9.72251C42.9236 9.83161 43.1107 9.82162 43.2513 9.69665C43.3922 9.57168 43.4581 9.35622 43.4197 9.14786L42.8954 6.3141L44.6737 4.4007C44.8041 4.26032 44.8537 4.03868 44.8 3.83573Z" fill="#F5C34B"/>
</g>
<g clip-path="url(#clip4_0_15)">
<path d="M57.0246 3.83573C56.971 3.63325 56.8246 3.48989 56.6521 3.47074L54.2996 3.20866L53.3699 0.537725C53.3013 0.341494 53.1451 0.214844 52.9712 0.214844C52.7974 0.214844 52.6411 0.341494 52.5729 0.537725L51.6432 3.20866L49.2903 3.47074C49.1178 3.49027 48.9718 3.63363 48.9178 3.83573C48.8642 4.03822 48.9137 4.26032 49.0442 4.4007L50.8225 6.3141L50.2981 9.14786C50.2598 9.35622 50.3257 9.57168 50.4666 9.69665C50.5423 9.76417 50.6313 9.79789 50.7206 9.79789C50.7973 9.79789 50.8741 9.77287 50.9427 9.72251L52.9712 8.23415L54.9994 9.72251C55.1482 9.83161 55.3353 9.82162 55.4759 9.69665C55.6168 9.57168 55.6827 9.35622 55.6443 9.14786L55.12 6.3141L56.8983 4.4007C57.0287 4.26032 57.0783 4.03868 57.0246 3.83573Z" fill="#F5C34B"/>
</g>
<defs>
<clipPath id="clip0_0_15">
<rect width="8.14947" height="10" fill="white"/>
</clipPath>
<clipPath id="clip1_0_15">
<rect width="8.14946" height="10" fill="white" transform="translate(12.2246)"/>
</clipPath>
<clipPath id="clip2_0_15">
<rect width="8.14947" height="10" fill="white" transform="translate(24.4492)"/>
</clipPath>
<clipPath id="clip3_0_15">
<rect width="8.14946" height="10" fill="white" transform="translate(36.6719)"/>
</clipPath>
<clipPath id="clip4_0_15">
<rect width="8.14946" height="10" fill="white" transform="translate(48.8965)"/>
</clipPath>
</defs>
</svg>


