<svg width="16" height="16" viewBox="0 0 16 16" fill="none" xmlns="http://www.w3.org/2000/svg">
<g clip-path="url(#clip0_250_8426)">
<path d="M15.7769 14.4892L14.6895 11.2926C15.2125 10.2246 15.4891 9.03431 15.491 7.83656C15.4942 5.774 14.7041 3.82372 13.2664 2.3451C11.8285 0.866197 9.91236 0.0337616 7.87105 0.0010429C6.80156 -0.0163008 5.76378 0.182761 4.78497 0.592042C3.8409 0.986822 2.99427 1.55867 2.26864 2.29166C1.54298 3.02466 0.976879 3.87988 0.586096 4.83353C0.180928 5.82228 -0.015917 6.87112 0.001005 7.95093C0.0333331 10.013 0.857436 11.9486 2.32148 13.4011C3.7824 14.8506 5.7081 15.6484 7.74554 15.6483C7.74953 15.6483 7.75374 15.6483 7.75773 15.6483C8.94344 15.6465 10.1218 15.367 11.1791 14.8387L14.3436 15.9371C14.4653 15.9794 14.59 16 14.7134 16C15.0065 16 15.2916 15.8837 15.5078 15.6652C15.8149 15.355 15.9181 14.9043 15.7769 14.4892ZM14.8437 14.9945C14.8126 15.026 14.7459 15.0737 14.6487 15.04L11.2954 13.8761C11.2458 13.8589 11.1943 13.8503 11.1429 13.8503C11.0671 13.8503 10.9916 13.8689 10.9233 13.9054C9.95415 14.4233 8.85902 14.698 7.75624 14.6997C4.05785 14.7057 0.998534 11.6712 0.939942 7.9359C0.91046 6.05656 1.61815 4.29028 2.93265 2.96244C4.24715 1.63463 5.99515 0.919885 7.85614 0.949604C11.5539 1.00882 14.5576 4.09766 14.5519 7.83509C14.5501 8.94909 14.2783 10.0553 13.7656 11.0342C13.7049 11.1501 13.6944 11.2862 13.7366 11.4102L14.8888 14.7975C14.9222 14.8956 14.8749 14.963 14.8437 14.9945Z" fill="#041E42"/>
<path d="M7.66916 11.3359C7.42356 11.3359 7.18826 11.5541 7.19961 11.8102C7.211 12.0672 7.40593 12.2846 7.66916 12.2846C7.91476 12.2846 8.15006 12.0664 8.13871 11.8102C8.12732 11.5532 7.93239 11.3359 7.66916 11.3359Z" fill="#041E42"/>
<path d="M7.67011 3.99023C6.38197 3.99023 5.33398 5.04886 5.33398 6.35007C5.33398 6.61201 5.54422 6.82439 5.80353 6.82439C6.06283 6.82439 6.27308 6.61201 6.27308 6.35007C6.27308 5.57195 6.89981 4.93886 7.67011 4.93886C8.44042 4.93886 9.06715 5.57195 9.06715 6.35007C9.06715 7.1282 8.44042 7.76129 7.67011 7.76129C7.41081 7.76129 7.20057 7.97366 7.20057 8.2356V10.1701C7.20057 10.4321 7.41081 10.6444 7.67011 10.6444C7.92942 10.6444 8.13966 10.4321 8.13966 10.1701V8.66201C9.20351 8.44185 10.0062 7.48888 10.0062 6.35007C10.0062 5.04886 8.95825 3.99023 7.67011 3.99023Z" fill="#041E42"/>
</g>
<defs>
<clipPath id="clip0_250_8426">
<rect width="15.8392" height="16" fill="white"/>
</clipPath>
</defs>
</svg>

