<svg width="31" height="32" viewBox="0 0 31 32" fill="none" xmlns="http://www.w3.org/2000/svg">
<g clip-path="url(#clip0_426_9959)">
<path d="M2.98784 31.9379C2.33432 31.9379 1.80457 31.3794 1.80457 30.6904C1.80457 24.4303 6.63498 19.3374 12.5724 19.3374H14.3473C15.6508 19.3374 16.9255 19.5806 18.136 20.0605C18.7477 20.3029 19.0572 21.0223 18.8272 21.6672C18.5973 22.3123 17.915 22.6386 17.3033 22.396C16.3599 22.0221 15.3653 21.8326 14.3473 21.8326H12.5724C7.9399 21.8326 4.17111 25.8062 4.17111 30.6904C4.17111 31.3794 3.64136 31.9379 2.98784 31.9379ZM21.3286 8.42114C21.3286 3.77772 17.7456 0 13.3415 0C8.9374 0 5.35439 3.77772 5.35439 8.42114C5.35439 13.0646 8.9374 16.8423 13.3415 16.8423C17.7456 16.8423 21.3286 13.0646 21.3286 8.42114ZM18.962 8.42114C18.962 11.6887 16.4406 14.3471 13.3415 14.3471C10.2423 14.3471 7.72093 11.6887 7.72093 8.42114C7.72093 5.15355 10.2423 2.49515 13.3415 2.49515C16.4406 2.49515 18.962 5.15355 18.962 8.42114ZM28.5465 28.1952V24.9002C28.5465 22.796 26.9229 21.084 24.9271 21.084H21.8019C21.1484 21.084 20.6186 21.6426 20.6186 22.3316C20.6186 23.0206 21.1484 23.5792 21.8019 23.5792H24.9271C25.618 23.5792 26.18 24.1718 26.18 24.9002V28.1952C26.18 28.8843 26.7097 29.4428 27.3633 29.4428C28.0168 29.4428 28.5465 28.8843 28.5465 28.1952ZM24.432 27.4344C24.8833 26.9361 24.866 26.1464 24.3934 25.6706C23.9208 25.1947 23.1718 25.2129 22.7205 25.7112C20.5366 28.1223 17.4706 29.5052 14.3085 29.5052H13.7556C13.1021 29.5052 12.5724 30.0637 12.5724 30.7527C12.5724 31.4418 13.1021 32.0003 13.7556 32.0003H14.3085C18.114 32.0003 21.8038 30.3361 24.432 27.4344Z" fill="#041E42"/>
</g>
<defs>
<clipPath id="clip0_426_9959">
<rect width="30.0573" height="31.6907" fill="white" transform="scale(1.00977)"/>
</clipPath>
</defs>
</svg>



