<svg width="21" height="18" viewBox="0 0 21 18" fill="none" xmlns="http://www.w3.org/2000/svg">
<path d="M15.1353 0C18.3064 0 20.8763 2.43242 20.8763 5.83783C20.8763 12.6486 13.0477 16.5406 10.4382 18C7.8286 16.5406 0 12.6486 0 5.83783C0 2.43242 2.60954 0 5.74097 0C7.68246 0 9.39432 0.972969 10.4382 1.94594C11.4819 0.972969 13.1938 0 15.1353 0ZM11.4131 15.1822C12.3326 14.6413 13.1625 14.1032 13.9391 13.5272C17.0507 11.2213 18.7886 8.70125 18.7886 5.83783C18.7886 3.54162 17.1843 1.94594 15.1353 1.94594C14.0121 1.94594 12.7971 2.50053 11.914 3.32172L10.4382 4.6975L8.96217 3.32172C8.07911 2.50053 6.86411 1.94594 5.74097 1.94594C3.71597 1.94594 2.08763 3.55718 2.08763 5.83783C2.08763 8.70228 3.82662 11.2213 6.93614 13.5272C7.71378 14.1032 8.54361 14.6413 9.46321 15.1813C9.77526 15.3652 10.0843 15.5413 10.4382 15.7378C10.792 15.5413 11.101 15.3652 11.4131 15.1822Z" fill="#041E42"/>
</svg>



