<svg width="11" height="10" viewBox="0 0 11 10" fill="none" xmlns="http://www.w3.org/2000/svg">
<g clip-path="url(#clip0_0_16)">
<path d="M10.6127 3.83573C10.5427 3.63325 10.3516 3.48989 10.1264 3.47074L7.05476 3.20866L5.84084 0.537725C5.75121 0.341494 5.54729 0.214844 5.3203 0.214844C5.09331 0.214844 4.8893 0.341494 4.80024 0.537725L3.58632 3.20866L0.514216 3.47074C0.289016 3.49027 0.0983184 3.63363 0.027852 3.83573C-0.0422084 4.03822 0.022494 4.26032 0.192815 4.4007L2.51471 6.3141L1.8301 9.14786C1.78001 9.35622 1.86607 9.57168 2.05003 9.69665C2.14891 9.76417 2.26508 9.79789 2.38166 9.79789C2.48184 9.79789 2.5821 9.77287 2.67164 9.72251L5.3203 8.23415L7.96847 9.72251C8.16274 9.83161 8.40702 9.82162 8.59057 9.69665C8.77453 9.57168 8.86058 9.35622 8.8105 9.14786L8.12588 6.3141L10.4478 4.4007C10.618 4.26032 10.6828 4.03868 10.6127 3.83573Z" fill="#F5C34B"/>
</g>
<defs>
<clipPath id="clip0_0_16">
<rect width="10.6406" height="10" fill="white"/>
</clipPath>
</defs>
</svg>



