<svg width="33" height="58" viewBox="0 0 33 58" fill="none" xmlns="http://www.w3.org/2000/svg">
<g clip-path="url(#clip0_67_8197)">
<path d="M32.6738 32.8655L30.1895 7.89653C29.8519 4.50408 28.0195 2.23059 26.1056 2.82887L4.79787 9.48723C2.8835 10.0854 1.60068 13.332 1.93821 16.7244L2.12076 18.5594C0.874018 19.5232 0 21.7276 0 24.2881V49.0185C0 52.4633 1.58145 55.2659 3.5253 55.2659H24.6771C26.621 55.2659 28.2024 52.4633 28.2024 49.0185V40.6063L29.8142 40.1027C30.7415 39.8129 31.5497 38.9006 32.0898 37.5335C32.6299 36.1666 32.8374 34.5086 32.6738 32.8655ZM30.5147 35.579C30.2692 36.2003 29.9018 36.615 29.4803 36.7468L28.2024 37.1461V35.2039V27.4742V24.288C28.2024 20.8432 26.621 18.0406 24.6771 18.0406H4.02179L3.83194 16.1326C3.75759 15.3857 3.85194 14.6321 4.09743 14.0107C4.34291 13.3894 4.71032 12.9746 5.13181 12.8429L26.4395 6.18463C26.5333 6.15532 26.6265 6.14124 26.7186 6.14124C27.4811 6.14124 28.159 7.1122 28.2959 8.4881L30.7802 33.457C30.8545 34.2041 30.7602 34.9577 30.5147 35.579ZM24.6771 51.8582H3.5253C2.64173 51.8582 1.92289 50.5843 1.92289 49.0185V36.9077H26.2795V49.0184C26.2795 50.5843 25.5607 51.8582 24.6771 51.8582ZM3.5253 21.4484H24.6771C25.5607 21.4484 26.2795 22.7223 26.2795 24.2881V25.7705H1.92289V24.2881C1.92289 22.7223 2.64173 21.4484 3.5253 21.4484ZM26.2795 29.1781V33.5002H1.92289V29.1781H26.2795Z" fill="#60C260"/>
<path d="M9.25172 45.0163H4.88995C4.35898 45.0163 3.92851 45.7792 3.92851 46.7201C3.92851 47.6611 4.35898 48.424 4.88995 48.424H9.25172C9.78269 48.424 10.2132 47.6611 10.2132 46.7201C10.2132 45.7792 9.78269 45.0163 9.25172 45.0163Z" fill="#60C260"/>
</g>
<defs>
<clipPath id="clip0_67_8197">
<rect width="32.25" height="57.1522" fill="white" transform="scale(1.01483)"/>
</clipPath>
</defs>
</svg>



