<svg width="20" height="22" viewBox="0 0 20 22" fill="none" xmlns="http://www.w3.org/2000/svg">
<path d="M10 9.77754C10.8241 9.77754 11.6297 9.51692 12.3149 9.02847C13.0001 8.54015 13.5342 7.84603 13.8495 7.03392C14.1648 6.2218 14.2474 5.32818 14.0866 4.46604C13.9258 3.60391 13.529 2.81198 12.9462 2.19042C12.3636 1.56886 11.6212 1.14556 10.8129 0.974074C10.0046 0.802581 9.16683 0.890599 8.4055 1.22698C7.64412 1.56337 6.99338 2.13303 6.53554 2.86391C6.0777 3.5948 5.83333 4.45408 5.83333 5.3331C5.83466 6.51141 6.27406 7.64104 7.05518 8.47423C7.8363 9.3074 8.89533 9.77611 10 9.77754ZM10 2.66644C10.4944 2.66644 10.9778 2.82284 11.3889 3.11586C11.8001 3.40888 12.1205 3.82535 12.3097 4.31262C12.4989 4.79989 12.5484 5.33606 12.452 5.85334C12.3555 6.37063 12.1174 6.84578 11.7677 7.21872C11.4182 7.59166 10.9727 7.84563 10.4877 7.94853C10.0027 8.05142 9.50008 7.99861 9.04325 7.79678C8.5865 7.59495 8.19603 7.25315 7.92132 6.81462C7.64662 6.3761 7.5 5.86052 7.5 5.3331C7.5 4.62586 7.76339 3.94759 8.23223 3.44749C8.70108 2.94739 9.337 2.66644 10 2.66644ZM2.5 19.5553V15.9997C2.50132 14.8214 2.94073 13.6918 3.72185 12.8586C4.50297 12.0254 5.56201 11.5567 6.66666 11.5553H13.3333C14.438 11.5567 15.497 12.0254 16.2782 12.8586C17.0592 13.6918 17.4987 14.8214 17.5 15.9997V19.5553C17.5 19.791 17.4122 20.0172 17.2559 20.1838C17.0997 20.3505 16.8877 20.4442 16.6667 20.4442C16.4457 20.4442 16.2337 20.3505 16.0774 20.1838C15.9212 20.0172 15.8333 19.791 15.8333 19.5553V15.9997C15.8333 15.2925 15.5699 14.6142 15.1011 14.1141C14.6322 13.6141 13.9963 13.3331 13.3333 13.3331H6.66666C6.00362 13.3331 5.36774 13.6141 4.8989 14.1141C4.43006 14.6142 4.16667 15.2925 4.16667 15.9997V19.5553C4.16667 19.791 4.07887 20.0172 3.92259 20.1838C3.76631 20.3505 3.55435 20.4442 3.33333 20.4442C3.11232 20.4442 2.90036 20.3505 2.74407 20.1838C2.5878 20.0172 2.5 19.791 2.5 19.5553Z" fill="#041E42"/>
</svg>



