<svg width="33" height="58" viewBox="0 0 33 58" fill="none" xmlns="http://www.w3.org/2000/svg">
<g clip-path="url(#clip0_67_8174)">
<path fill-rule="evenodd" clip-rule="evenodd" d="M12.9667 37.619H22.9476C24.0778 31.7227 28.7933 31.7793 29.9124 37.619H30.7464V29.1199C30.7464 28.061 30.2568 27.1932 29.6595 27.1932C27.2082 27.1932 24.7569 27.1932 22.3056 27.1932C21.7758 27.1932 21.3463 26.4321 21.3463 25.4936V15.2943H4.91223V17.3338H6.67584C7.93856 17.3338 7.93856 20.7336 6.67584 20.7336H4.91223V24.02H9.5164C10.7794 24.02 10.7794 27.4198 9.5164 27.4198H4.91223V37.6186H6.00216C7.13204 31.7222 11.8478 31.7798 12.9667 37.619ZM2.99381 20.7336H1.84295C0.579981 20.7336 0.579981 17.3338 1.84295 17.3338H2.99381V13.5942C2.99381 12.6556 3.42328 11.8945 3.95314 11.8945C5.42111 11.8945 21.5543 11.9056 21.5543 11.8945C24.1801 11.8945 26.4674 14.1982 27.8132 18.2007L29.6939 23.7939C31.3352 23.8267 32.6648 26.206 32.6648 29.1194V39.3187C32.6648 40.2573 32.2354 41.0184 31.7058 41.0184H30.0335C29.6897 44.0185 28.1938 46.2311 26.4301 46.2311C24.6665 46.2311 23.1706 44.0185 22.8268 41.0184H13.0878C12.744 44.0185 11.2481 46.2311 9.48444 46.2311C7.72083 46.2311 6.22489 44.0185 5.88106 41.0184H3.95314C3.42328 41.0184 2.99381 40.2573 2.99381 39.3187V34.2189H0.883613C-0.379107 34.2189 -0.379107 30.8195 0.883613 30.8195H2.99381V27.4198H0.883613C-0.379107 27.4198 -0.379107 24.02 0.883613 24.02H2.99381V20.7336ZM27.6736 37.5115C28.3603 38.7284 28.3603 40.702 27.6736 41.9189C26.569 43.8765 24.6715 42.4839 24.6715 39.7152C24.6715 36.9464 26.569 35.5539 27.6736 37.5115ZM27.4676 23.7935H23.2647V15.7549C24.4885 16.4501 25.4893 17.9095 26.172 19.9401L27.4676 23.7935ZM10.7279 37.5115C11.4146 38.7284 11.4146 40.702 10.7279 41.9189C9.62327 43.8765 7.72582 42.4839 7.72582 39.7152C7.72607 36.9464 9.62327 35.5539 10.7279 37.5115Z" fill="#60C260"/>
</g>
<defs>
<clipPath id="clip0_67_8174">
<rect width="32.25" height="57.1522" fill="white" transform="scale(1.01483)"/>
</clipPath>
</defs>
</svg>



