<svg width="16" height="16" viewBox="0 0 16 16" fill="none" xmlns="http://www.w3.org/2000/svg">
<path d="M12.2622 9.9624C11.3386 9.9624 10.5117 10.388 9.96312 11.0551L6.39439 9.00838C6.50537 8.69291 6.56636 8.35371 6.56636 8.00021C6.56636 7.64679 6.50537 7.30758 6.39439 6.99211L9.96284 4.94486C10.5114 5.61221 11.3384 6.03796 12.262 6.03796C13.9095 6.03796 15.2499 4.68347 15.2499 3.01852C15.2501 1.35406 13.9097 0 12.2622 0C10.6144 0 9.2739 1.35406 9.2739 3.01845C9.2739 3.37195 9.33483 3.71122 9.44587 4.02676L5.87721 6.07408C5.32866 5.40708 4.5019 4.98162 3.57852 4.98162C1.93058 4.98162 0.589844 6.33568 0.589844 8.00014C0.589844 9.66453 1.93058 11.0186 3.57852 11.0186C4.5019 11.0186 5.32859 10.5931 5.87714 9.9262L9.44587 11.973C9.33483 12.2886 9.27383 12.6279 9.27383 12.9815C9.27383 14.6459 10.6144 15.9999 12.2621 15.9999C13.9096 15.9999 15.25 14.6458 15.25 12.9815C15.2501 11.3168 13.9097 9.9624 12.2622 9.9624ZM12.2622 1.05626C13.3331 1.05626 14.2044 1.93648 14.2044 3.01845C14.2044 4.10098 13.3331 4.98162 12.2622 4.98162C11.191 4.98162 10.3196 4.10098 10.3196 3.01845C10.3196 1.93648 11.191 1.05626 12.2622 1.05626ZM3.57859 9.9624C2.50722 9.9624 1.63556 9.08211 1.63556 8.00021C1.63556 6.91817 2.50722 6.03796 3.57859 6.03796C4.64955 6.03796 5.52078 6.91817 5.52078 8.00021C5.52078 9.08211 4.64948 9.9624 3.57859 9.9624ZM12.2622 14.9437C11.191 14.9437 10.3196 14.0634 10.3196 12.9816C10.3196 11.8992 11.191 11.0187 12.2622 11.0187C13.3331 11.0187 14.2044 11.8992 14.2044 12.9816C14.2044 14.0634 13.3331 14.9437 12.2622 14.9437Z" fill="#041E42"/>
</svg>



