<svg width="22" height="22" viewBox="0 0 22 22" fill="none" xmlns="http://www.w3.org/2000/svg">
<ellipse cx="10.8756" cy="10.9998" rx="10.8756" ry="10.9998" fill="white"/>
<g clip-path="url(#clip0_1_1440)">
<path d="M18.3754 9.27431C18.152 9.12263 17.9503 8.94069 17.7758 8.73352C17.7888 8.44508 17.8461 8.16046 17.9458 7.88992C18.133 7.24864 18.3663 6.45053 17.9168 5.82602C17.464 5.19655 16.6368 5.17541 15.9723 5.15824C15.6927 5.16952 15.4131 5.13912 15.1423 5.06799C14.9934 4.83178 14.8797 4.57469 14.8049 4.30496C14.5832 3.66628 14.3069 2.87135 13.5672 2.62821C12.8494 2.39226 12.2052 2.84055 11.6373 3.23476C11.409 3.41909 11.1527 3.5648 10.8784 3.66625C10.6039 3.56492 10.3475 3.41918 10.1192 3.23476C9.55119 2.8402 8.90684 2.39332 8.18922 2.62821C7.44968 2.87135 7.17355 3.66587 6.95156 4.3047C6.87689 4.57308 6.76446 4.82921 6.61772 5.06522C6.34607 5.13852 6.06502 5.16978 5.78413 5.15798C5.11963 5.17513 4.29246 5.19629 3.83967 5.82573C3.39013 6.45059 3.62336 7.24869 3.81067 7.89004C3.90914 8.15916 3.96697 8.44174 3.98219 8.7283C3.80853 8.93838 3.60604 9.12228 3.38088 9.27434C2.84472 9.6879 2.17768 10.2028 2.17768 10.9995C2.17768 11.7962 2.84472 12.3111 3.381 12.7246C3.60435 12.8763 3.8061 13.0583 3.98053 13.2654C3.96757 13.5539 3.91026 13.8385 3.81061 14.109C3.62334 14.7503 3.39008 15.5485 3.83961 16.1729C4.2924 16.8024 5.11957 16.8235 5.7841 16.8408C6.06365 16.8295 6.3433 16.8599 6.61409 16.931C6.76298 17.1672 6.87667 17.4243 6.95148 17.694C7.17346 18.3328 7.4496 19.1277 8.18931 19.3709C8.32035 19.4143 8.45742 19.4364 8.59534 19.4364C9.15206 19.4364 9.66042 19.083 10.1193 18.7643C10.3475 18.5799 10.6038 18.4342 10.8782 18.3327C11.1526 18.434 11.409 18.5798 11.6374 18.7642C12.2054 19.1588 12.8496 19.6053 13.5673 19.3707C14.3069 19.1276 14.583 18.3331 14.805 17.6943C14.8797 17.4259 14.9921 17.1698 15.1389 16.9337C15.4105 16.8604 15.6915 16.8292 15.9724 16.841C16.6369 16.8238 17.4641 16.8027 17.9169 16.1732C18.3664 15.5484 18.1332 14.7502 17.9459 14.1089C17.8474 13.8398 17.7896 13.5572 17.7744 13.2707C17.948 13.0606 18.1505 12.8767 18.3757 12.7246C18.9116 12.3111 19.5787 11.7962 19.5787 10.9995C19.5787 10.2028 18.9117 9.6879 18.3754 9.27431ZM14.1097 9.68467L10.4845 13.3513C10.2015 13.6376 9.74252 13.6377 9.45939 13.3514C9.45933 13.3514 9.45928 13.3513 9.45922 13.3513L7.64661 11.518C7.35988 11.2352 7.35406 10.7709 7.63359 10.4809C7.91312 10.191 8.37216 10.1851 8.65888 10.4678C8.66328 10.4721 8.66762 10.4765 8.6719 10.4809L9.97186 11.7958L13.0844 8.64764C13.364 8.35764 13.823 8.35178 14.1097 8.6345C14.3965 8.91722 14.4023 9.3815 14.1227 9.6715C14.1184 9.67598 14.1141 9.68033 14.1097 9.68467Z" fill="#19B269"/>
</g>
<defs>
<clipPath id="clip0_1_1440">
<rect width="16.902" height="17.0951" fill="white" transform="translate(2.17768 2.1998) scale(1.02952)"/>
</clipPath>
</defs>
</svg>



